<?xml version="1.0" standalone="no"?>
<!DOCTYPE svg PUBLIC "-//W3C//DTD SVG 20010904//EN"
 "http://www.w3.org/TR/2001/REC-SVG-20010904/DTD/svg10.dtd">
<svg version="1.0" xmlns="http://www.w3.org/2000/svg"
 width="400.000000pt" height="400.000000pt" viewBox="0 0 400.000000 400.000000"
 preserveAspectRatio="xMidYMid meet">
<metadata>
Created by potrace 1.15, written by Peter Selinger 2001-2017
</metadata>
<g transform="translate(0.000000,400.000000) scale(0.100000,-0.100000)"
fill="#000000" stroke="none">
<path d="M2514 3908 c-11 -13 -26 -36 -32 -51 -11 -27 -13 -27 -34 -13 -35 25
-90 20 -118 -9 -22 -23 -29 -25 -79 -20 -75 8 -115 -16 -132 -77 -6 -24 -13
-49 -15 -56 -2 -7 -25 -22 -51 -33 -27 -11 -57 -28 -67 -37 -18 -17 -19 -14
-13 95 5 93 3 116 -9 128 -13 13 -64 15 -333 15 -233 0 -320 -3 -329 -12 -8
-8 -12 -67 -12 -201 0 -176 -1 -189 -18 -182 -9 3 -30 9 -47 12 -46 9 -81 30
-105 63 -12 16 -30 30 -41 30 -11 0 -37 9 -59 20 -22 11 -52 20 -67 20 -23 0
-32 8 -48 41 -35 74 -51 80 -221 85 -135 4 -152 2 -181 -16 -42 -25 -63 -59
-70 -110 -5 -39 -9 -43 -59 -65 -68 -30 -89 -67 -81 -142 5 -46 3 -54 -14 -64
-11 -6 -29 -29 -39 -52 -10 -23 -37 -60 -60 -82 -23 -22 -64 -72 -90 -110 -26
-39 -55 -77 -64 -84 -9 -7 -16 -24 -16 -37 l0 -23 33 19 c19 11 38 30 44 43 6
12 27 42 47 65 20 24 36 50 36 57 0 7 10 19 22 28 42 27 77 68 83 97 4 17 15
32 26 35 28 9 37 41 32 101 -3 30 0 60 7 73 13 26 66 51 106 51 26 0 26 2 21
42 -8 61 14 102 70 129 41 20 50 21 93 10 28 -7 71 -9 111 -5 60 6 67 4 96
-20 20 -17 35 -42 42 -71 12 -47 21 -52 66 -35 21 8 29 6 42 -10 10 -11 30
-20 46 -20 41 0 65 -16 82 -55 13 -32 18 -35 55 -35 61 0 98 -23 106 -66 7
-37 57 -104 77 -104 6 0 30 9 53 20 32 16 47 18 67 11 32 -13 50 -45 44 -80
-8 -42 8 -61 54 -61 34 0 42 -4 57 -30 21 -37 45 -35 52 5 6 35 44 59 72 44
10 -5 25 -23 33 -39 17 -33 39 -37 69 -15 34 25 54 17 93 -36 35 -50 38 -51
77 -46 36 5 43 2 73 -31 18 -20 33 -39 33 -43 0 -3 14 -12 30 -19 17 -7 30
-18 30 -25 0 -9 -53 -14 -212 -19 -117 -4 -221 -10 -230 -12 -12 -4 -18 -15
-18 -35 0 -36 -30 -109 -126 -305 -41 -83 -74 -158 -74 -167 0 -10 11 -17 33
-19 27 -2 32 -7 32 -28 0 -20 -10 -30 -44 -47 -32 -16 -48 -20 -57 -12 -12 10
-127 265 -155 342 -7 20 -23 47 -35 58 -22 21 -24 21 -401 9 -414 -13 -423
-15 -423 -71 0 -31 -65 -181 -157 -362 -30 -59 -52 -114 -49 -122 3 -9 18 -15
36 -15 23 0 30 -4 30 -19 0 -23 -43 -34 -191 -51 -131 -15 -139 -17 -139 -40
0 -23 24 -26 67 -9 15 7 69 16 118 20 50 5 101 10 115 12 l25 2 6 -125 c3 -69
7 -126 8 -128 7 -16 343 -132 382 -132 23 0 711 199 721 208 4 4 8 32 10 62 3
54 4 55 31 53 16 -1 63 -20 105 -41 104 -54 192 -84 354 -122 132 -31 228 -73
228 -100 0 -11 -86 -37 -155 -45 -116 -14 -215 -43 -490 -140 -159 -57 -326
-115 -371 -129 -44 -14 -210 -89 -368 -166 -158 -77 -299 -140 -313 -140 -15
0 -41 14 -64 34 -47 43 -89 52 -174 37 -70 -12 -80 -10 -108 26 -32 41 -127
43 -127 2 0 -15 7 -19 35 -19 35 0 85 -35 85 -59 0 -18 35 -21 84 -6 85 26
121 20 195 -29 102 -67 123 -96 166 -232 20 -66 40 -123 44 -127 5 -4 20 -2
36 5 25 11 29 10 50 -16 16 -20 29 -27 44 -23 12 3 33 -4 53 -20 29 -21 40
-23 89 -18 37 4 59 3 63 -4 10 -15 42 -14 69 3 15 10 52 14 125 14 l104 -1 81
-75 c78 -72 82 -77 79 -114 -3 -39 -2 -41 48 -52 14 -3 32 -19 41 -35 13 -22
27 -30 60 -36 24 -4 50 -12 57 -18 10 -8 23 -6 48 8 29 15 39 17 55 7 10 -7
28 -12 39 -12 11 0 20 -4 20 -10 0 -5 20 -21 45 -35 24 -15 47 -35 50 -46 4
-10 20 -22 38 -27 28 -7 32 -13 35 -47 4 -43 14 -55 49 -55 13 0 24 -8 28 -20
9 -27 45 -27 45 1 0 33 -17 56 -50 67 -24 9 -30 17 -30 41 0 33 -22 61 -50 61
-10 0 -25 11 -34 25 -9 14 -25 25 -35 25 -10 0 -23 11 -29 24 -7 16 -23 27
-44 31 -18 4 -47 12 -64 17 -24 9 -40 8 -63 -2 -18 -7 -34 -11 -36 -8 -8 8
288 204 385 254 60 31 113 68 147 102 78 78 272 198 598 370 83 43 177 95 209
115 33 21 69 37 80 37 16 0 322 -83 396 -107 9 -3 1 -9 -22 -18 -52 -18 -83
-39 -111 -77 -33 -45 -198 -345 -247 -452 -44 -93 -45 -120 -5 -130 l25 -6 0
-195 c0 -181 1 -195 18 -195 17 0 18 12 14 203 l-4 204 123 238 123 239 46
-141 c57 -170 94 -252 163 -357 l52 -80 3 -153 c3 -120 6 -153 17 -153 18 0
30 127 21 228 -5 56 -3 81 6 93 8 10 74 32 171 55 101 25 157 43 157 51 0 24
-99 9 -269 -40 -47 -14 -91 -23 -98 -20 -47 18 -271 582 -246 621 5 9 95 43
209 79 323 101 404 132 404 154 0 10 -2 19 -4 19 -2 0 -84 -26 -182 -59 -290
-95 -248 -92 -474 -32 -106 29 -200 56 -208 60 -9 5 50 40 175 103 228 116
288 143 513 227 150 57 175 69 178 89 2 12 1 22 -1 22 -3 0 -52 -16 -109 -36
-204 -71 -559 -225 -645 -280 -30 -19 -92 -52 -137 -73 -44 -20 -124 -62 -176
-93 -52 -31 -176 -98 -275 -150 -248 -130 -438 -249 -516 -323 -44 -41 -98
-78 -165 -112 -54 -28 -167 -99 -250 -157 -84 -58 -159 -106 -168 -106 -77 0
95 120 636 443 750 449 1233 698 1666 858 112 41 142 56 142 71 0 10 -1 18 -3
18 -10 0 -335 -127 -447 -175 -467 -200 -1228 -623 -1854 -1032 -104 -68 -195
-123 -202 -123 -18 0 -44 40 -44 67 0 12 -12 30 -29 42 -16 12 -32 32 -35 45
-3 14 -16 28 -29 32 -12 3 -34 21 -48 38 l-26 31 -124 -3 c-75 -2 -134 -8
-150 -16 -15 -7 -33 -9 -45 -5 -10 4 -38 5 -60 2 -28 -3 -49 0 -65 10 -13 9
-43 20 -66 27 -24 6 -47 19 -53 30 -7 13 -21 20 -39 20 -16 0 -33 6 -39 13
-17 20 -56 173 -49 191 7 16 24 25 333 166 405 185 939 373 1614 567 500 143
1027 272 1300 317 52 9 110 19 128 22 23 3 32 10 32 24 0 11 -4 20 -9 20 -24
0 -369 -66 -526 -101 -705 -156 -1766 -479 -2310 -704 -119 -49 -398 -176
-508 -232 -48 -24 -92 -41 -97 -38 -24 15 -8 43 33 60 23 11 161 77 307 147
164 80 299 139 355 155 50 14 117 36 150 49 347 134 461 169 668 208 48 9 131
34 185 55 241 96 696 234 970 295 153 35 640 127 735 141 38 5 47 10 47 27 0
18 -4 19 -52 13 -29 -4 -134 -22 -233 -41 -99 -19 -240 -46 -313 -60 l-133
-25 -49 31 c-27 17 -83 44 -125 60 -41 17 -133 59 -203 94 -70 35 -144 68
-165 71 -21 4 -45 14 -53 22 -18 19 -15 63 6 73 28 14 165 51 195 53 l30 2 5
-87 c3 -48 10 -91 15 -96 17 -16 196 -79 262 -93 l62 -13 288 83 c174 50 293
90 301 100 9 11 12 49 11 132 -3 106 -1 118 20 147 16 23 30 32 51 32 42 0 80
17 80 35 0 14 -8 15 -55 10 l-55 -7 2 533 3 534 53 3 c46 3 52 6 52 25 l0 22
-297 -3 c-265 -2 -299 -4 -310 -19 -10 -13 -13 -105 -13 -378 0 -267 -3 -364
-12 -373 -7 -7 -43 -12 -92 -12 -78 0 -79 0 -61 20 10 11 29 20 41 20 18 0 25
7 30 28 3 15 10 39 16 54 5 15 8 33 5 40 -2 7 2 26 10 41 12 25 12 34 0 70 -8
25 -11 50 -6 62 16 40 10 81 -16 105 -17 16 -25 35 -27 68 -3 43 -6 48 -58 84
-30 21 -63 38 -72 38 -13 0 -18 11 -20 48 -3 42 -6 49 -35 62 -18 8 -33 20
-33 26 0 19 -33 41 -70 49 -19 3 -47 11 -63 17 -21 8 -37 7 -72 -6 -52 -20
-60 -17 -79 29 -16 37 -33 45 -106 44 -25 0 -63 2 -85 6 -34 6 -43 3 -61 -17z
m88 -35 c15 -14 24 -14 57 -5 55 17 59 16 75 -22 23 -55 73 -71 122 -40 20 14
30 15 50 5 14 -6 38 -11 54 -11 34 0 45 -14 42 -52 -2 -30 8 -34 38 -18 26 14
54 -14 46 -46 -3 -13 -9 -35 -12 -48 -6 -23 -3 -25 43 -28 41 -3 48 -6 51 -25
2 -15 11 -23 30 -25 24 -3 27 -8 30 -48 2 -32 11 -53 30 -73 20 -21 23 -30 14
-39 -18 -18 -15 -108 5 -130 15 -17 15 -20 -6 -42 -13 -14 -20 -30 -16 -36 4
-7 2 -30 -5 -51 -10 -30 -18 -39 -36 -39 -13 0 -25 -8 -28 -18 -12 -36 -55
-66 -104 -72 -37 -4 -47 -9 -50 -25 -6 -38 -24 -74 -40 -81 -10 -4 -47 -8 -84
-9 l-68 -2 0 31 c0 18 15 54 36 86 31 50 80 178 70 187 -2 2 -10 -7 -19 -19
-8 -13 -53 -62 -100 -110 -94 -98 -99 -100 -190 -69 -31 11 -78 23 -104 27
-26 4 -69 17 -95 30 -26 13 -56 24 -67 24 -44 0 -27 -21 51 -64 131 -71 183
-109 186 -134 6 -42 -76 -24 -90 20 -3 9 -43 14 -139 18 l-134 5 -13 28 c-7
15 -20 27 -28 27 -8 0 -38 24 -67 54 -28 30 -64 58 -79 61 -17 4 -28 14 -28
24 0 9 -12 36 -26 61 -42 72 -45 85 -26 111 17 24 20 48 25 201 2 65 6 80 26
102 15 16 35 26 52 26 33 0 57 21 65 58 19 90 40 107 124 97 57 -7 59 -6 87
25 29 32 29 32 61 16 55 -28 79 -22 104 29 24 49 48 57 80 28z m-714 -380 l2
-302 -30 -16 c-30 -16 -32 -15 -60 14 -22 24 -36 31 -67 31 -21 0 -48 -7 -61
-15 -16 -12 -34 -14 -72 -9 l-50 7 0 39 c0 30 -7 46 -29 69 -31 30 -55 35
-108 20 -40 -12 -43 -4 -43 97 0 63 2 73 13 59 11 -15 29 -17 147 -15 l135 3
0 125 0 125 -123 3 c-71 1 -130 -2 -142 -8 -15 -8 -20 -23 -23 -73 -2 -50 -4
-45 -5 30 -1 50 1 99 4 107 6 15 35 16 258 14 l251 -3 3 -302z m1956 251 c3
-9 6 -236 6 -506 0 -404 -2 -489 -13 -480 -7 6 -33 60 -57 119 -62 154 -60
153 -191 153 -88 0 -108 3 -113 16 -3 9 -6 167 -6 353 0 249 3 340 12 349 8 8
64 12 184 12 147 0 173 -2 178 -16z m-2222 -77 c5 -7 7 -43 6 -82 l-3 -70 -94
-3 c-109 -3 -121 3 -120 62 2 78 12 100 44 108 42 10 158 -1 167 -15z m2065
-675 c7 -4 28 -47 47 -94 19 -47 51 -118 70 -157 35 -69 44 -101 28 -101 -5 0
-113 -14 -241 -30 -304 -40 -296 -40 -331 -4 -43 43 -95 136 -136 241 -22 56
-42 93 -50 93 -17 0 -18 26 -1 37 6 4 107 10 222 13 332 10 379 10 392 2z
m-1023 -39 c53 -13 63 -13 97 0 l39 15 0 -223 c0 -123 -4 -235 -10 -249 -11
-30 -43 -52 -90 -60 -28 -6 -31 -5 -17 4 23 15 22 44 -5 99 -20 40 -23 64 -26
196 -3 166 -11 199 -53 221 -32 16 -40 30 -11 19 9 -3 44 -13 76 -22z m-176
-75 c6 -7 24 -49 42 -93 17 -44 54 -128 82 -188 32 -66 48 -111 42 -117 -9 -9
-534 -80 -592 -80 -16 0 -42 10 -57 22 -47 37 -119 160 -166 282 -24 64 -49
116 -55 116 -5 0 -43 -83 -82 -184 -69 -175 -102 -239 -117 -225 -3 4 23 65
59 136 35 72 79 171 97 222 18 51 37 94 43 96 6 2 144 8 306 13 162 5 316 9
341 10 27 1 51 -3 57 -10z m689 -226 l38 -54 0 -197 0 -196 -34 3 c-19 1 -77
20 -130 41 -111 45 -108 39 -110 191 -1 88 2 102 35 180 20 47 50 122 67 168
l30 83 34 -82 c18 -45 50 -107 70 -137z m-197 195 c0 -4 -29 -66 -65 -137 -36
-71 -65 -136 -65 -144 0 -9 12 -16 28 -18 21 -2 27 -8 27 -28 0 -31 -50 -54
-66 -30 -16 24 -7 333 10 353 10 13 28 16 72 14 32 -1 59 -5 59 -10z m-1170
-179 c31 -85 66 -154 107 -207 l33 -44 -2 -221 -3 -221 -40 1 c-37 1 -235 73
-262 96 -9 7 -13 51 -13 150 l0 140 49 117 c27 64 59 146 72 184 13 37 27 67
30 67 4 0 17 -28 29 -62z m-533 -15 c11 -10 32 -52 48 -93 15 -41 52 -126 82
-189 49 -105 61 -141 48 -141 -3 0 -145 -18 -317 -41 -172 -22 -322 -38 -334
-35 -13 4 -38 25 -58 49 -71 86 -112 168 -185 369 -11 30 -36 29 -44 0 -3 -12
-5 -11 -6 4 0 12 8 32 18 45 19 24 22 24 278 31 231 7 319 10 419 16 19 1 40
-5 51 -15z m2531 -55 c12 -16 9 -235 -4 -247 -14 -14 -224 -72 -235 -66 -5 4
-9 50 -9 104 0 117 -6 126 -77 115 -82 -11 -83 -13 -83 -112 0 -148 -22 -187
-105 -194 l-40 -3 -3 180 -2 180 47 -3 c27 -1 143 11 258 27 254 35 240 34
253 19z m-3227 -193 c35 -87 97 -197 120 -211 5 -3 9 -116 9 -251 l0 -246 -42
7 c-23 4 -96 29 -163 55 l-120 49 -3 155 -3 156 55 128 c30 70 65 158 77 195
13 37 25 65 27 63 3 -2 22 -47 43 -100z m2943 49 c3 -9 6 -53 6 -99 0 -81 -1
-83 -27 -93 -68 -27 -68 -28 -71 87 -3 114 0 121 54 121 20 0 34 -6 38 -16z
m-897 -159 c2 -77 -1 -146 -5 -153 -5 -6 -68 -28 -141 -48 -106 -29 -135 -34
-141 -23 -5 7 -6 43 -3 80 7 85 -3 158 -24 166 -24 9 -145 -14 -154 -29 -5 -7
-9 -72 -9 -144 0 -93 -4 -135 -12 -142 -13 -10 -124 -42 -147 -42 -8 0 -11 65
-11 217 0 169 3 214 12 205 19 -19 93 -14 353 23 132 18 249 33 260 32 19 -2
20 -10 22 -142z m-327 -131 l0 -115 -35 -15 c-72 -30 -73 -28 -77 104 -3 134
0 142 69 142 l43 0 0 -116z m587 12 c93 -46 191 -91 219 -100 29 -9 59 -25 69
-36 16 -18 15 -19 -22 -29 -258 -66 -359 -96 -604 -177 -157 -52 -296 -94
-308 -94 -13 0 -45 16 -71 35 -60 44 -127 67 -253 89 -108 18 -147 32 -286
100 -52 25 -100 46 -106 46 -7 0 -24 9 -39 21 -23 18 -26 27 -26 87 l0 67 47
38 c28 22 55 37 67 35 19 -3 21 -11 24 -106 l3 -103 32 -20 c37 -22 298 -109
331 -109 42 0 681 190 693 206 7 10 10 34 6 65 -6 55 8 83 38 74 10 -4 94 -44
186 -89z m-1457 -136 c0 -113 -3 -150 -14 -159 -16 -13 -248 -81 -277 -81 -18
0 -19 8 -19 116 0 153 -3 158 -88 149 -107 -11 -102 -4 -102 -168 0 -78 -4
-147 -8 -154 -6 -10 -140 -53 -164 -53 -5 0 -8 101 -8 224 l0 224 29 -11 c22
-8 91 -2 327 30 164 22 305 38 312 35 9 -3 12 -43 12 -152z m-347 -127 c4 -73
3 -121 -3 -127 -6 -6 -29 -16 -52 -23 -64 -18 -68 -10 -68 128 0 133 3 138 76
139 l41 0 6 -117z"/>
<path d="M3567 3662 c-15 -16 -17 -46 -17 -206 0 -110 4 -195 10 -207 9 -16
22 -19 86 -19 72 0 75 1 85 28 16 41 8 384 -10 405 -20 25 -132 24 -154 -1z
m111 -30 c9 -7 12 -50 10 -183 l-3 -174 -45 0 -45 0 -3 174 c-3 187 -2 191 48
191 14 0 31 -4 38 -8z"/>
<path d="M3663 2533 l-43 -4 0 -68 c0 -87 9 -96 89 -88 33 3 64 8 70 12 15 9
14 128 -1 143 -12 12 -29 12 -115 5z"/>
<path d="M2450 2357 c-42 -11 -45 -14 -50 -52 -7 -52 4 -115 21 -127 19 -12
78 -4 124 17 30 15 34 20 21 27 -11 6 -36 5 -68 -2 -59 -12 -68 -6 -68 46 0
34 12 48 48 57 34 8 52 -2 52 -28 0 -34 10 -55 26 -55 11 0 14 16 14 65 l0 65
-37 -1 c-21 0 -58 -6 -83 -12z"/>
<path d="M1329 2135 c-3 -2 -22 -7 -43 -10 -21 -2 -52 -10 -68 -17 l-29 -13 3
-85 3 -85 56 2 c85 3 125 23 138 69 11 40 5 111 -12 132 -9 12 -39 17 -48 7z"/>
</g>
</svg>
